<mxfile host="app.diagrams.net" modified="2023-06-25T07:15:24.709Z" agent="5.0 (Macintosh; Intel Mac OS X 10_15_7) AppleWebKit/537.36 (KHTML, like Gecko) Chrome/114.0.0.0 Safari/537.36" etag="tkMhH9Axwd08xhyOOp1i" version="21.0.8" type="github">
  <diagram name="Page-1" id="XsqB8b9VYWxZf0B4IzV1">
    <mxGraphModel dx="1910" dy="827" grid="1" gridSize="10" guides="1" tooltips="1" connect="1" arrows="1" fold="1" page="1" pageScale="1" pageWidth="827" pageHeight="1169" math="0" shadow="0">
      <root>
        <mxCell id="0" />
        <mxCell id="1" parent="0" />
        <mxCell id="VD_UxQhcJUa0Sc6m_3p2-33" value="" style="group" vertex="1" connectable="0" parent="1">
          <mxGeometry x="-50" y="210" width="850" height="170" as="geometry" />
        </mxCell>
        <mxCell id="VD_UxQhcJUa0Sc6m_3p2-29" value="" style="rounded=0;whiteSpace=wrap;html=1;strokeWidth=2;align=left;horizontal=1;" vertex="1" parent="VD_UxQhcJUa0Sc6m_3p2-33">
          <mxGeometry width="850" height="170" as="geometry" />
        </mxCell>
        <mxCell id="VD_UxQhcJUa0Sc6m_3p2-32" value="页面/项目" style="text;html=1;strokeColor=none;fillColor=none;align=center;verticalAlign=middle;whiteSpace=wrap;rounded=0;" vertex="1" parent="VD_UxQhcJUa0Sc6m_3p2-33">
          <mxGeometry width="60" height="30" as="geometry" />
        </mxCell>
        <mxCell id="VD_UxQhcJUa0Sc6m_3p2-31" value="" style="group" vertex="1" connectable="0" parent="1">
          <mxGeometry x="-50" y="50" width="850" height="110" as="geometry" />
        </mxCell>
        <mxCell id="VD_UxQhcJUa0Sc6m_3p2-26" value="" style="rounded=0;whiteSpace=wrap;html=1;strokeWidth=2;align=left;horizontal=1;" vertex="1" parent="VD_UxQhcJUa0Sc6m_3p2-31">
          <mxGeometry width="850" height="110" as="geometry" />
        </mxCell>
        <mxCell id="VD_UxQhcJUa0Sc6m_3p2-27" value="UI 组件" style="text;html=1;strokeColor=none;fillColor=none;align=center;verticalAlign=middle;whiteSpace=wrap;rounded=0;" vertex="1" parent="VD_UxQhcJUa0Sc6m_3p2-31">
          <mxGeometry width="67.10526315789474" height="30" as="geometry" />
        </mxCell>
        <mxCell id="VD_UxQhcJUa0Sc6m_3p2-14" value="资金划转&lt;br&gt;（弹窗）" style="rounded=1;whiteSpace=wrap;html=1;fillColor=#d5e8d4;strokeColor=#82b366;" vertex="1" parent="VD_UxQhcJUa0Sc6m_3p2-31">
          <mxGeometry x="210" y="25" width="120" height="60" as="geometry" />
        </mxCell>
        <mxCell id="VD_UxQhcJUa0Sc6m_3p2-15" value="账户升级&lt;br&gt;（弹窗）" style="rounded=1;whiteSpace=wrap;html=1;fillColor=#d5e8d4;strokeColor=#82b366;" vertex="1" parent="VD_UxQhcJUa0Sc6m_3p2-31">
          <mxGeometry x="520" y="25" width="120" height="60" as="geometry" />
        </mxCell>
        <mxCell id="VD_UxQhcJUa0Sc6m_3p2-3" value="Trade" style="rounded=0;whiteSpace=wrap;html=1;" vertex="1" parent="1">
          <mxGeometry x="90" y="300" width="120" height="60" as="geometry" />
        </mxCell>
        <mxCell id="VD_UxQhcJUa0Sc6m_3p2-9" value="Trade&lt;br style=&quot;border-color: var(--border-color);&quot;&gt;独立写的一部份" style="rounded=0;whiteSpace=wrap;html=1;" vertex="1" parent="1">
          <mxGeometry x="350" y="300" width="120" height="70" as="geometry" />
        </mxCell>
        <mxCell id="VD_UxQhcJUa0Sc6m_3p2-11" value="Trade" style="rounded=0;whiteSpace=wrap;html=1;" vertex="1" parent="1">
          <mxGeometry x="610" y="300" width="120" height="60" as="geometry" />
        </mxCell>
        <mxCell id="VD_UxQhcJUa0Sc6m_3p2-16" value="账户界面&lt;br&gt;（多个页面）" style="rounded=1;whiteSpace=wrap;html=1;fillColor=#d5e8d4;strokeColor=#82b366;" vertex="1" parent="1">
          <mxGeometry x="120" y="220" width="130" height="60" as="geometry" />
        </mxCell>
        <mxCell id="VD_UxQhcJUa0Sc6m_3p2-18" value="账户界面&lt;br&gt;（多个页面）" style="rounded=1;whiteSpace=wrap;html=1;fillColor=#d5e8d4;strokeColor=#82b366;" vertex="1" parent="1">
          <mxGeometry x="380" y="220" width="130" height="60" as="geometry" />
        </mxCell>
        <mxCell id="VD_UxQhcJUa0Sc6m_3p2-19" value="账户界面&lt;br&gt;（多个页面）" style="rounded=1;whiteSpace=wrap;html=1;fillColor=#d5e8d4;strokeColor=#82b366;" vertex="1" parent="1">
          <mxGeometry x="650" y="220" width="130" height="60" as="geometry" />
        </mxCell>
        <mxCell id="VD_UxQhcJUa0Sc6m_3p2-30" value="" style="group;strokeWidth=2;perimeterSpacing=0;" vertex="1" connectable="0" parent="1">
          <mxGeometry x="-50" y="430" width="850" height="60" as="geometry" />
        </mxCell>
        <mxCell id="VD_UxQhcJUa0Sc6m_3p2-12" value="ws-data" style="rounded=0;whiteSpace=wrap;html=1;fillColor=#fff2cc;strokeColor=#d6b656;" vertex="1" parent="VD_UxQhcJUa0Sc6m_3p2-30">
          <mxGeometry width="850" height="60" as="geometry" />
        </mxCell>
        <mxCell id="VD_UxQhcJUa0Sc6m_3p2-28" value="共享 ws 数据层" style="text;html=1;strokeColor=none;fillColor=none;align=center;verticalAlign=middle;whiteSpace=wrap;rounded=0;" vertex="1" parent="VD_UxQhcJUa0Sc6m_3p2-30">
          <mxGeometry width="111.8421052631579" height="30" as="geometry" />
        </mxCell>
        <mxCell id="VD_UxQhcJUa0Sc6m_3p2-2" value="Home" style="rounded=0;whiteSpace=wrap;html=1;" vertex="1" parent="1">
          <mxGeometry x="40" y="260" width="120" height="60" as="geometry" />
        </mxCell>
        <mxCell id="VD_UxQhcJUa0Sc6m_3p2-8" value="土站" style="rounded=0;whiteSpace=wrap;html=1;" vertex="1" parent="1">
          <mxGeometry x="300" y="260" width="120" height="60" as="geometry" />
        </mxCell>
        <mxCell id="VD_UxQhcJUa0Sc6m_3p2-10" value="Testnet" style="rounded=0;whiteSpace=wrap;html=1;" vertex="1" parent="1">
          <mxGeometry x="560" y="260" width="120" height="60" as="geometry" />
        </mxCell>
      </root>
    </mxGraphModel>
  </diagram>
</mxfile>
